<svg width="17" height="16" viewBox="0 0 17 16" fill="none" xmlns="http://www.w3.org/2000/svg">
<path d="M9.17513 15.6785L9.9556 14.898C10.2931 14.564 10.2861 14.0191 9.94153 13.6921L5.70521 9.65621H15.8091C16.2767 9.65621 16.6529 9.28003 16.6529 8.81246V7.68746C16.6529 7.21989 16.2767 6.84371 15.8091 6.84371H5.70521L9.94153 2.80779C10.2825 2.48085 10.2896 1.93593 9.9556 1.60194L9.17513 0.82147C8.84818 0.490988 8.3138 0.490988 7.98336 0.82147L1.14898 7.65581C0.818503 7.98279 0.818503 8.51713 1.14898 8.84762L7.98336 15.6785C8.3103 16.0089 8.84468 16.0089 9.17513 15.6785Z" fill="#959EAD"/>
</svg>
