<svg width="13" height="13" viewBox="0 0 13 13" fill="none" xmlns="http://www.w3.org/2000/svg">
<path d="M6.89577 12.5278L12.2114 7.21216C12.4684 6.95784 12.4684 6.54224 12.2114 6.28519L6.89577 0.972322C6.64148 0.715281 6.22585 0.715281 5.96884 0.972322L5.3618 1.57936C5.09932 1.83912 5.10476 2.26295 5.37275 2.51724L8.66767 5.65629H0.80908C0.445415 5.65629 0.152832 5.94887 0.152832 6.31254V7.18754C0.152832 7.5512 0.445415 7.84378 0.80908 7.84378H8.66767L5.37275 10.9828C5.10751 11.2371 5.10204 11.661 5.3618 11.9207L5.96884 12.5278C6.22313 12.7848 6.63876 12.7848 6.89577 12.5278Z" fill="white"/>
</svg>
