<svg width="25" height="25" viewBox="0 0 25 25" fill="none" xmlns="http://www.w3.org/2000/svg">
<g clip-path="url(#clip0)">
<path d="M22.5778 18.8999L21.0108 16.8109C20.2132 15.7423 19.7808 14.4453 19.7778 13.1119V9.49988C19.7759 7.81803 19.1684 6.19312 18.0667 4.9224C16.9649 3.65169 15.4424 2.82014 13.7778 2.57988V2.49988C13.7778 2.23466 13.6725 1.98031 13.4849 1.79277C13.2974 1.60523 13.043 1.49988 12.7778 1.49988C12.5126 1.49988 12.2583 1.60523 12.0707 1.79277C11.8832 1.98031 11.7778 2.23466 11.7778 2.49988V2.57988C10.1132 2.82014 8.59079 3.65169 7.48901 4.9224C6.38724 6.19312 5.7798 7.81803 5.77783 9.49988V13.1119C5.77497 14.4455 5.34301 15.7428 4.54583 16.8119L2.97783 18.8999C2.86641 19.0484 2.79855 19.2251 2.78187 19.4101C2.7652 19.595 2.80035 19.781 2.88341 19.9471C2.96646 20.1132 3.09413 20.2529 3.2521 20.3505C3.41008 20.4482 3.59212 20.4999 3.77783 20.4999H8.91983C9.1381 21.3575 9.63589 22.1179 10.3345 22.661C11.0332 23.2041 11.8929 23.4989 12.7778 23.4989C13.6628 23.4989 14.5225 23.2041 15.2211 22.661C15.9198 22.1179 16.4176 21.3575 16.6358 20.4999H21.7778C21.9635 20.4999 22.1456 20.4482 22.3036 20.3505C22.4615 20.2529 22.5892 20.1132 22.6723 19.9471C22.7553 19.781 22.7905 19.595 22.7738 19.4101C22.7571 19.2251 22.6893 19.0484 22.5778 18.8999ZM12.7778 21.4999C12.4283 21.4988 12.0852 21.4059 11.783 21.2304C11.4807 21.0548 11.23 20.8029 11.0558 20.4999H14.4998C14.3257 20.8029 14.0749 21.0548 13.7727 21.2304C13.4704 21.4059 13.1273 21.4988 12.7778 21.4999ZM5.77783 18.4999L6.14583 18.0099C7.20148 16.5947 7.77369 14.8774 7.77783 13.1119V9.49988C7.77783 8.1738 8.30462 6.90203 9.2423 5.96434C10.18 5.02666 11.4517 4.49988 12.7778 4.49988C14.1039 4.49988 15.3757 5.02666 16.3134 5.96434C17.251 6.90203 17.7778 8.1738 17.7778 9.49988V13.1119C17.7814 14.8783 18.354 16.5965 19.4108 18.0119L19.7778 18.4999H5.77783Z" fill="#333333"/>
<circle cx="18.1085" cy="4.62376" r="3.77403" fill="#ED5252"/>
</g>
<defs>
<clipPath id="clip0">
<rect width="24" height="24" fill="white" transform="translate(0.777832 0.5)"/>
</clipPath>
</defs>
</svg>
