<svg width="17" height="12" viewBox="0 0 17 12" fill="none" xmlns="http://www.w3.org/2000/svg">
<path fill-rule="evenodd" clip-rule="evenodd" d="M10.7603 6.94261C10.1983 7.37691 9.37861 8.01035 8.77781 7.99998C8.17702 8.01035 7.35735 7.37691 6.79537 6.94261C6.67918 6.85282 6.574 6.77154 6.48406 6.70622C2.64052 3.91697 2.08824 3.48477 1.26663 2.8418C1.20179 2.79106 1.13528 2.73901 1.06534 2.68438C0.884094 2.54061 0.777832 2.32501 0.777832 2.09374V1.5C0.777832 0.671873 1.44971 0 2.27783 0H15.2778C16.1059 0 16.7778 0.671873 16.7778 1.5V2.09374C16.7778 2.32501 16.6715 2.54376 16.4903 2.68438C16.4368 2.72634 16.3853 2.76677 16.335 2.80624C15.4867 3.47234 14.9864 3.86522 11.0716 6.70622C10.9816 6.77154 10.8764 6.85282 10.7603 6.94261ZM16.7778 10.5C16.7778 11.3281 16.1059 12 15.2778 12H2.27783C1.44971 12 0.777832 11.3281 0.777832 10.5V4.11248C0.777832 3.95623 0.955963 3.86873 1.08096 3.96563C1.29308 4.13039 1.52614 4.30865 1.83668 4.54153L2.03275 4.68814C2.7547 5.22651 3.86816 6.04204 5.89656 7.51561C5.99653 7.58857 6.1069 7.67373 6.2261 7.76571C6.89319 8.28044 7.83662 9.0084 8.77781 9.00309C9.72338 9.01106 10.6824 8.26921 11.3391 7.76126C11.4572 7.6699 11.5655 7.58611 11.6622 7.51561C14.8497 5.2 15.7747 4.50625 16.4747 3.96248C16.5966 3.86562 16.7778 3.95623 16.7778 4.10936V10.5Z" fill="#7900B1"/>
</svg>
