<svg width="114" height="21" viewBox="0 0 114 21" fill="none" xmlns="http://www.w3.org/2000/svg">
<path d="M18.1516 10.5C18.1516 12.2647 17.7278 13.8823 17.0216 15.3529C16.3153 16.8235 15.1853 17.8529 14.0553 18.5882C13.2078 19.1765 12.2191 19.6176 11.0891 19.7647C9.95908 19.9117 8.68783 20.0588 7.27533 20.0588H0.777832V0.941162H7.41658C8.97033 0.941162 10.2416 1.08822 11.3716 1.38234C12.5016 1.67646 13.3491 1.97057 14.1966 2.55881C15.4678 3.44116 16.4566 4.47057 17.1628 5.7941C17.8691 7.11763 18.1516 8.58822 18.1516 10.5ZM13.2078 10.5C13.2078 9.17646 12.9253 8.14704 12.5016 7.26469C12.0778 6.38234 11.3716 5.64704 10.3828 5.20587C9.95908 4.91175 9.39408 4.76469 8.82908 4.76469C8.26408 4.76469 7.55783 4.61763 6.56908 4.61763H5.29783V16.6765H6.56908C7.69908 16.6765 8.54658 16.6765 9.11158 16.5294C9.67658 16.3823 10.1003 16.2353 10.6653 15.9412C11.5128 15.3529 12.2191 14.7647 12.6428 13.8823C13.0666 13 13.2078 11.8235 13.2078 10.5Z" fill="#A972FF"/>
<path d="M38.0678 0.941162L31.2878 12.7059V20.2059H26.4853V13L19.5641 0.941162H24.9316L28.8866 8.2941L32.7003 0.941162H38.0678Z" fill="#A972FF"/>
<path d="M55.3004 14.0294C55.3004 15.9412 54.5942 17.4118 53.0404 18.5882C51.4867 19.7647 49.3679 20.3529 46.6842 20.3529C45.1304 20.3529 43.8592 20.2059 42.7292 19.9118C41.5992 19.6176 40.4692 19.3235 39.4804 18.8824V14.3235H40.0454C41.0342 15.2059 42.1642 15.7941 43.2942 16.2353C44.4242 16.6765 45.6954 16.8235 46.8254 16.8235C47.1079 16.8235 47.5317 16.8235 47.9554 16.6765C48.3792 16.5294 48.8029 16.5294 49.0854 16.3824C49.5092 16.2353 49.7917 16.0882 49.9329 15.7941C50.0742 15.5 50.3567 15.2059 50.3567 14.7647C50.3567 14.3235 50.2154 14.0294 49.7917 13.7353C49.3679 13.4412 48.9442 13.1471 48.2379 13C47.5317 12.8529 46.8254 12.7059 45.9779 12.5588C45.1304 12.4118 44.4242 12.2647 43.8592 11.9706C42.3054 11.3824 41.1754 10.7941 40.4692 9.76471C39.7629 8.7353 39.6217 8 39.6217 6.67647C39.6217 4.91176 40.3279 3.44118 41.8817 2.26471C43.4354 1.08824 45.4129 0.5 47.8142 0.5C49.0854 0.5 50.2154 0.647059 51.4867 0.941177C52.7579 1.23529 53.7467 1.52941 54.5942 1.82353V6.2353H54.0292C53.3229 5.64706 52.3342 5.05882 51.3454 4.61765C50.3567 4.17647 49.2267 4.02941 48.0967 4.02941C47.6729 4.02941 47.2492 4.02941 46.9667 4.17647C46.6842 4.32353 46.2604 4.32353 45.8367 4.47059C45.5542 4.61765 45.2717 4.76471 44.9892 5.05882C44.7067 5.35294 44.7067 5.64706 44.7067 5.94118C44.7067 6.38235 44.8479 6.82353 45.2717 7.11765C45.6954 7.41177 46.4017 7.70588 47.3904 7.85294C48.0967 8 48.6617 8.14706 49.3679 8.29412C50.0742 8.44118 50.6392 8.58824 51.3454 8.88235C52.7579 9.32353 53.7467 10.0588 54.4529 10.7941C55.1592 11.5294 55.3004 12.7059 55.3004 14.0294Z" fill="#A972FF"/>
<path d="M73.0978 4.61763H67.3065V20.2059H62.504V4.61763H56.7128V0.941162H72.9565V4.61763H73.0978Z" fill="#A972FF"/>
<path d="M93.7203 20.0588H87.9291L82.8441 13H80.5841V20.0588H75.7816V0.941162H83.8328C84.9628 0.941162 85.8103 0.941163 86.6578 1.08822C87.5053 1.23528 88.2116 1.5294 88.9178 1.97057C89.6241 2.41175 90.1891 2.99999 90.6128 3.58822C91.0366 4.32352 91.1778 5.20587 91.1778 6.23528C91.1778 7.70587 90.8953 8.88234 90.1891 9.76469C89.6241 10.647 88.6353 11.3823 87.5053 11.9706L93.7203 20.0588ZM86.3753 6.82351C86.3753 6.38234 86.2341 5.94116 86.0928 5.64704C85.9516 5.35293 85.5278 5.05881 85.1041 4.76469C84.8216 4.61763 84.3978 4.47057 83.9741 4.47057C83.5503 4.47057 82.9853 4.47057 82.4203 4.47057H80.7253V9.61763H82.1378C82.8441 9.61763 83.5503 9.61763 84.1153 9.47057C84.6803 9.32351 85.1041 9.17646 85.3866 8.88234C85.6691 8.58822 85.9516 8.2941 86.0928 7.99999C86.2341 7.70587 86.3753 7.26469 86.3753 6.82351Z" fill="#A972FF"/>
<path d="M113.778 10.5C113.778 13.5882 112.93 15.9412 111.235 17.8529C109.54 19.7647 107.28 20.5 104.173 20.5C101.207 20.5 98.8054 19.6176 97.2516 17.8529C95.6979 16.0882 94.7091 13.5882 94.7091 10.5C94.7091 7.41177 95.5566 4.91177 97.2516 3.14706C98.9466 1.38235 101.207 0.5 104.173 0.5C107.139 0.5 109.399 1.38235 111.094 3.14706C112.789 4.91177 113.778 7.41177 113.778 10.5ZM107.563 15.3529C107.987 14.7647 108.41 14.0294 108.552 13.2941C108.693 12.5588 108.834 11.5294 108.834 10.5C108.834 9.32353 108.693 8.29412 108.41 7.55882C108.128 6.82353 107.845 6.08824 107.422 5.64706C106.998 5.05882 106.574 4.76471 106.009 4.47059C105.444 4.17647 104.879 4.17647 104.314 4.17647C103.749 4.17647 103.184 4.32353 102.619 4.47059C102.054 4.76471 101.63 5.05882 101.207 5.64706C100.783 6.08824 100.5 6.82353 100.218 7.70588C99.9354 8.58824 99.7941 9.47059 99.7941 10.6471C99.7941 11.8235 99.9354 12.7059 100.218 13.5882C100.5 14.4706 100.783 15.0588 101.207 15.5C101.63 15.9412 102.054 16.3824 102.619 16.6765C103.184 16.9706 103.749 16.9706 104.314 16.9706C104.879 16.9706 105.444 16.8235 106.009 16.5294C106.574 16.2353 107.139 15.9412 107.563 15.3529Z" fill="#A972FF"/>
</svg>
