<svg width="19" height="20" viewBox="0 0 19 20" fill="none" xmlns="http://www.w3.org/2000/svg">
<path d="M8.40148 16.5C10.1549 16.4996 11.8578 15.9054 13.239 14.812L17.5817 19.208L18.9785 17.794L14.6359 13.398C15.7166 11.9997 16.3039 10.2754 16.3044 8.5C16.3044 4.089 12.7589 0.5 8.40148 0.5C4.04403 0.5 0.498596 4.089 0.498596 8.5C0.498596 12.911 4.04403 16.5 8.40148 16.5ZM8.40148 2.5C11.6703 2.5 14.3286 5.191 14.3286 8.5C14.3286 11.809 11.6703 14.5 8.40148 14.5C5.13265 14.5 2.47432 11.809 2.47432 8.5C2.47432 5.191 5.13265 2.5 8.40148 2.5Z" fill="#98A4B5"/>
</svg>
