<svg width="38" height="36" viewBox="0 0 38 36" fill="none" xmlns="http://www.w3.org/2000/svg">
<g id="Icon">
<circle id="Oval" opacity="0.15" cx="19.1667" cy="18" r="18" fill="#7900B1"/>
<path id="Icon_2" d="M16.7644 23.7363L11.8718 18.873C11.7351 18.7363 11.6667 18.5605 11.6667 18.3457C11.6667 18.1308 11.7351 17.9551 11.8718 17.8183L12.9558 16.7637C13.0925 16.6074 13.2634 16.5293 13.4685 16.5293C13.6736 16.5293 13.8542 16.6074 14.0105 16.7637L17.2917 20.0449L24.323 13.0137C24.4792 12.8574 24.6599 12.7793 24.865 12.7793C25.07 12.7793 25.2409 12.8574 25.3777 13.0137L26.4616 14.0684C26.5984 14.2051 26.6667 14.3809 26.6667 14.5957C26.6667 14.8105 26.5984 14.9863 26.4616 15.123L17.8191 23.7363C17.6824 23.8926 17.5066 23.9707 17.2917 23.9707C17.0769 23.9707 16.9011 23.8926 16.7644 23.7363Z" fill="#7900B1"/>
</g>
</svg>
